<?xml version="1.0" encoding="iso-8859-1"?>
<!-- Uploaded to: SVG Repo, www.svgrepo.com, Generator: SVG Repo Mixer Tools -->
<svg fill="#000000" height="800px" width="800px" version="1.1" id="Capa_1" xmlns="http://www.w3.org/2000/svg" xmlns:xlink="http://www.w3.org/1999/xlink" 
	 viewBox="0 0 58 58" xml:space="preserve">
<g>
	<path d="M51,22c0-4.426-1.371-8.819-3.876-12.466L49.1,7.558c0.756-0.755,1.172-1.76,1.172-2.829c0-1.067-0.416-2.072-1.171-2.828
		c-1.512-1.512-4.144-1.512-5.657,0l-1.977,1.978C37.819,1.371,33.426,0,29,0s-8.819,1.371-12.467,3.878L13.97,1.314
		c-1.513-1.513-4.146-1.511-5.656,0c-1.56,1.56-1.56,4.097,0,5.656l2.563,2.563C8.371,13.181,7,17.574,7,22
		c0,10.771,7.519,19.736,18,21.637V44h-3c-2.206,0-4,1.794-4,4s1.794,4,4,4h3v2c0,2.206,1.794,4,4,4s4-1.794,4-4v-2h3
		c2.206,0,4-1.794,4-4s-1.794-4-4-4h-3v-0.363C43.481,41.736,51,32.771,51,22z M29,39c-9.374,0-17-7.626-17-17S19.626,5,29,5
		s17,7.626,17,17S38.374,39,29,39z"/>
</g>
</svg>