<?xml version="1.0" encoding="utf-8"?>
<!-- Svg Vector Icons : http://www.onlinewebfonts.com/icon -->
<!DOCTYPE svg PUBLIC "-//W3C//DTD SVG 1.1//EN" "http://www.w3.org/Graphics/SVG/1.1/DTD/svg11.dtd">
<svg version="1.1" xmlns="http://www.w3.org/2000/svg" xmlns:xlink="http://www.w3.org/1999/xlink" x="0px" y="0px" viewBox="0 0 256 256" enable-background="new 0 0 256 256" xml:space="preserve">
<metadata> Svg Vector Icons : http://www.onlinewebfonts.com/icon </metadata>
<g><g><g><path fill="#000000" d="M80.8,10.5c-9.5,1.2-19.2,5.2-27.2,11.1C39.6,31.9,30.7,48.3,29.9,65.1c-0.2,5.2-0.2,5.6,0.7,6.8c1.4,1.8,3.7,2.4,5.7,1.6c2.3-0.9,2.9-2.5,3.3-7.7C40.8,48,51.9,31.9,67.8,24.5c13.3-6.1,28.5-6.1,41.7,0.1c13.1,6.2,22.7,17.6,26.6,31.5c1.5,5.4,2,15.3,1.2,21.3c-2.6,18.5-14.1,41.3-33,65.6c-11.4,14.7-23.8,28.4-40.9,45.2c-11.8,11.5-11.9,11.6-11.9,13.5c0,1.5,0.3,2.3,1.3,3.4l1.3,1.5l56.5,0.1l56.5,0.1v17.3c0,19,0.1,19.8,2.7,21.2c1.8,0.9,3,0.9,4.7,0c2.6-1.3,2.7-2.1,2.7-21.2v-17.3h22.1c23.8,0,24.4,0,26-2.3c1.2-1.8,1-4.3-0.6-6l-1.3-1.5l-23.1-0.1l-23.1-0.1v-91.1c0-77.6-0.1-91.3-0.6-92.6c-0.7-1.6-2.7-3-4.4-3c-1.7,0-3.7,1.4-4.4,3c-0.6,1.3-0.6,15-0.6,92.7v91.1H118H68.8l10.1-10.3c33.6-34.1,55.2-64.9,64-91.4c4.7-13.9,5.7-25,3.6-36.6C141,27.6,112.1,6.5,80.8,10.5z"/></g></g></g>
</svg>