<?xml version="1.0" encoding="utf-8"?>
<!-- Svg Vector Icons : http://www.onlinewebfonts.com/icon -->
<!DOCTYPE svg PUBLIC "-//W3C//DTD SVG 1.1//EN" "http://www.w3.org/Graphics/SVG/1.1/DTD/svg11.dtd">
<svg version="1.1" xmlns="http://www.w3.org/2000/svg" xmlns:xlink="http://www.w3.org/1999/xlink" x="0px" y="0px" viewBox="0 0 256 256" enable-background="new 0 0 256 256" xml:space="preserve">
<metadata> Svg Vector Icons : http://www.onlinewebfonts.com/icon </metadata>
<g><g><g><path fill="#000000" d="M75.7,10.5c-3.3,0.6-8.5,3.2-11.2,5.7c-3,2.8-5.7,6.8-7.1,10.7c-1.5,4.5-1.5,11.1,0.2,15.7c2,5.7,5.9,10.3,11,13.2l1.9,1.1l-4.6,3.4c-21.4,16.1-36.1,40.7-40,67.1c-4.8,31.9,5.5,63.9,27.9,87.1c15.8,16.4,35.1,26.4,58.2,30.4c8.3,1.4,24,1.4,32.3,0c23.1-4,42.4-14,58.2-30.4c25.1-26,34.7-62.9,25.6-98.1c-5.6-21.7-19.6-42.4-37.7-56.1l-4.5-3.4l2.3-1.3c5.9-3.4,10.7-10.6,11.7-17.8c1.1-7.4-1.5-14.9-7-20.5c-9.7-9.8-24.8-9.8-34.7,0c-8,7.9-9.6,20.1-3.8,29.9c2.5,4.3,5.9,7.1,13.1,10.8c12.2,6.2,18.5,10.6,26.8,18.9c8.2,8.3,13.4,15.6,18.5,26.1c11.9,25.1,11.9,54.7,0,79.8c-5,10.5-10.2,17.9-18.5,26.1c-8.3,8.3-15.6,13.5-26.1,18.5c-41.7,19.8-91.8,6-117.7-32.6c-3.8-5.7-8.9-16-11-22.4c-7.5-22.6-5.9-47.9,4.3-69.3C53,83.3,67.4,68.7,87.1,58.8c8-4,10.7-6,13.5-9.9c7.1-10,6-22.9-2.5-31.6C92.2,11.4,84.1,8.9,75.7,10.5z M86.7,21.2c3.1,1.4,5.3,3.4,7,6.4c1.2,2.2,1.3,2.9,1.3,6.8c0,5.1-0.9,7.4-4,10.6c-3.1,3.1-5.4,4-10.3,4c-4.8,0-7.3-0.9-10.3-4c-2.8-2.8-3.9-5.5-4.1-10c-0.1-3.2,0-4.1,0.9-6.2c1.5-3.2,3.2-5.2,5.8-6.7C77.6,19.5,82.2,19.2,86.7,21.2z M181.3,21.2c5.3,2.4,8.1,6.6,8.4,12.3c0.3,5.1-0.7,7.7-4.2,11.3c-3.5,3.5-6.1,4.5-11,4.2c-12.3-0.6-18.3-14.8-10.3-24.3C168.2,20.1,175.5,18.6,181.3,21.2z"/></g></g></g>
</svg>