<?xml version="1.0" encoding="utf-8"?>
<!-- Svg Vector Icons : http://www.onlinewebfonts.com/icon -->
<!DOCTYPE svg PUBLIC "-//W3C//DTD SVG 1.1//EN" "http://www.w3.org/Graphics/SVG/1.1/DTD/svg11.dtd">
<svg version="1.1" xmlns="http://www.w3.org/2000/svg" xmlns:xlink="http://www.w3.org/1999/xlink" x="0px" y="0px" viewBox="0 0 256 256" enable-background="new 0 0 256 256" xml:space="preserve">
<metadata> Svg Vector Icons : http://www.onlinewebfonts.com/icon </metadata>
<g><g><g><path fill="#000000" d="M194.4,10.6c-2.5,1.4-3.1,5.3-1.2,7.5l1.1,1.3l17.3,0.2l17.3,0.2l-31.4,31.4L166,82.8l-3.7-3c-14.1-11.5-31.4-18.5-50-20.4C88.5,56.9,63,64.7,44.4,80c-3.9,3.2-10.9,10.2-13.9,14c-6.1,7.6-12,18.3-15.2,27.5C7,145.4,8.5,171,19.4,193.3c19,38.9,61.3,59.6,103.6,50.7c11-2.3,23-7.3,32-13.3c14.3-9.6,26.4-23.5,33.3-38.5c11.9-25.7,11.7-55.7-0.8-81.1c-2.5-5.2-8.3-14.1-11.9-18.4l-2.3-2.8l31.4-31.5l31.4-31.4l0.2,17.3l0.2,17.3l1.3,1.1c2.2,1.9,5.9,1.3,7.4-1.2c0.7-1.2,0.8-3.7,0.8-24.9V13.1l-1.6-1.6l-1.6-1.6h-23.7C200.4,10,195.3,10.1,194.4,10.6z M109.3,69c26.5,2.1,49.4,15.4,64,37.3c20,29.9,18.2,70.4-4.5,98.6c-4.1,5-11.6,12.2-16.9,16c-5.4,3.9-15.7,9.1-22.1,11.2c-24,7.9-50.8,4.5-71.8-9.2c-7-4.5-14.8-11.7-20.3-18.4c-7.5-9.2-13.8-22.9-16.3-35.1c-3.7-18.6-1.2-37,7.4-54.3c4.4-8.7,8.2-14,15.7-21.4C52,86,57.3,82.1,66,77.8c11.6-5.8,22.2-8.4,36.7-9.1C103.3,68.6,106.3,68.8,109.3,69z"/></g></g></g>
</svg>