<?xml version="1.0" encoding="utf-8"?>
<!-- Svg Vector Icons : http://www.onlinewebfonts.com/icon -->
<!DOCTYPE svg PUBLIC "-//W3C//DTD SVG 1.1//EN" "http://www.w3.org/Graphics/SVG/1.1/DTD/svg11.dtd">
<svg version="1.1" xmlns="http://www.w3.org/2000/svg" xmlns:xlink="http://www.w3.org/1999/xlink" x="0px" y="0px" viewBox="0 0 256 256" enable-background="new 0 0 256 256" xml:space="preserve">
<metadata> Svg Vector Icons : http://www.onlinewebfonts.com/icon </metadata>
<g><g><path fill="#000000" d="M180.8,67.1c6.1-0.7,11.4-2.8,16-6.2c11.1-8.3,17-24.1,17-45.7c0-2.8-2.3-5.1-5.1-5.1s-5.1,2.3-5.1,5.1c0,12.7-2.2,29.6-12.9,37.5c-6.8,5.1-16.6,5.8-28.9,2.1c0,0-0.1,0-0.1,0C151.4,50,140,47.4,128,47.4s-23.4,2.6-33.6,7.3c0,0-0.1,0-0.1,0c-12.4,3.7-22.1,3-28.9-2.1c-10.6-7.9-12.9-24.8-12.9-37.5c0-2.8-2.3-5.1-5.1-5.1c-2.8,0-5.1,2.3-5.1,5.1c0,21.6,5.9,37.4,17,45.7c4.6,3.4,10,5.5,16,6.2c-17.1,14.8-27.9,36.6-27.9,61c0,42.8,33.4,77.9,75.6,80.5c0,0,0,0.1,0,0.2v11H79.6c-2.8,0-5.1,2.3-5.1,5.1c0,2.8,2.3,5.1,5.1,5.1h43.3v10.8c0,2.8,2.3,5.1,5.1,5.1c2.8,0,5.1-2.3,5.1-5.1V230h43.2c2.8,0,5.1-2.3,5.1-5.1s-2.3-5.1-5.1-5.1h-43.3v-11c0,0,0-0.1,0-0.2c42.2-2.6,75.6-37.7,75.6-80.5C208.7,103.7,197.8,81.9,180.8,67.1z M198.4,128.1c0,9.5-1.9,18.7-5.5,27.4c-3.5,8.4-8.6,15.9-15.1,22.4c-6.5,6.5-14,11.6-22.4,15.1c-8.7,3.7-17.9,5.5-27.4,5.5c-9.5,0-18.7-1.9-27.4-5.5c-8.4-3.5-15.9-8.6-22.4-15.1c-6.5-6.5-11.6-14-15.1-22.4c-3.7-8.7-5.5-17.9-5.5-27.4c0-9.5,1.9-18.7,5.5-27.4c3.5-8.4,8.6-15.9,15.1-22.4c6.5-6.5,14-11.6,22.4-15.1c8.7-3.7,17.9-5.5,27.4-5.5c9.5,0,18.7,1.9,27.4,5.5c8.4,3.5,15.9,8.6,22.4,15.1c6.5,6.5,11.6,14,15.1,22.4C196.5,109.4,198.4,118.6,198.4,128.1z"/></g></g>
</svg>