<?xml version="1.0" encoding="utf-8"?>
<!-- Svg Vector Icons : http://www.onlinewebfonts.com/icon -->
<!DOCTYPE svg PUBLIC "-//W3C//DTD SVG 1.1//EN" "http://www.w3.org/Graphics/SVG/1.1/DTD/svg11.dtd">
<svg version="1.1" xmlns="http://www.w3.org/2000/svg" xmlns:xlink="http://www.w3.org/1999/xlink" x="0px" y="0px" viewBox="0 0 256 256" enable-background="new 0 0 256 256" xml:space="preserve">
<metadata> Svg Vector Icons : http://www.onlinewebfonts.com/icon </metadata>
<g><g><g><path fill="#000000" d="M61.2,14.2c-6.8,5-20.6,18.8-25.7,25.7c-12.1,16.2-20.2,35-24,55.6c-2,11.2-2,32.5,0,43.7c3.9,21,11.9,39.6,24.3,56c5.2,6.9,18.3,20,25.2,25.1c16.2,12.1,35,20.3,55.3,24c10.9,2,33.6,2,44.5,0c33.7-6.1,63.6-25.2,83-52.6l2.2-3.1l-2.4-2.3l-2.4-2.4l-4.4,2.7c-11.1,6.7-26.2,12.5-39,15c-64.8,12.5-127.1-27.3-142.4-91.2c-1-4.3-2.2-10.3-2.6-13.4c-1-8-0.8-25.4,0.3-32.8c2.5-16.7,8.5-33.2,16.9-46.5l2-3.1l-2.2-2.3c-1.2-1.2-2.4-2.2-2.6-2.2C66.9,10.1,64.2,12,61.2,14.2z M56.4,29.2c-2.6,5.1-7.2,19.6-8.7,27.4C39.6,98.7,52.4,141.8,82,172c31.1,31.6,74.5,44.8,118.3,35.9c7.9-1.6,21.2-5.8,26-8.2c1.4-0.7,2.8-1.2,3-0.9c0.6,0.6-10.2,10.8-16.3,15.4c-24.3,18.5-54.1,27.3-83.7,24.9c-16.6-1.4-29.7-5-44-11.9C34.8,202.8,7.5,147.4,18.9,92.3c3.6-17.6,11.4-34.6,22.9-49.6c3.9-5.2,14.9-16.9,15.8-16.9C57.9,25.8,57.3,27.3,56.4,29.2z"/></g></g></g>
</svg>