<?xml version="1.0" encoding="utf-8"?>
<!-- Svg Vector Icons : http://www.onlinewebfonts.com/icon -->
<!DOCTYPE svg PUBLIC "-//W3C//DTD SVG 1.1//EN" "http://www.w3.org/Graphics/SVG/1.1/DTD/svg11.dtd">
<svg version="1.1" xmlns="http://www.w3.org/2000/svg" xmlns:xlink="http://www.w3.org/1999/xlink" x="0px" y="0px" viewBox="0 0 256 256" enable-background="new 0 0 256 256" xml:space="preserve">
<metadata> Svg Vector Icons : http://www.onlinewebfonts.com/icon </metadata>
<g><g><g><path fill="#000000" d="M117.7,10.5c-40.9,3.9-76.4,33.2-88.5,72.9c-5.3,17.6-5.8,37.7-1.2,55.5c5.7,22.4,19.5,43,37.9,56.8l4.6,3.4l-1.9,1.1c-3.3,1.9-5.4,3.8-7.7,6.9c-7.1,9.9-6,22.9,2.5,31.5c7.7,7.7,19.3,9.6,28.8,4.5c14.7-7.8,17.6-27.3,5.9-39c-2.1-2.1-4.1-3.4-9.3-6c-12.2-6.2-18.4-10.6-26.7-18.9c-8.2-8.3-13.4-15.5-18.4-26.1c-17.2-35.8-9.2-79.4,19.7-107.2c27.9-26.9,69.8-33.7,104.6-17.1c16.4,7.8,30.1,20,39.5,35.2c16.6,26.7,18.5,60.6,5,89.1c-5,10.5-10.2,17.8-18.4,26.1c-8.2,8.1-14.8,12.9-25.9,18.4c-7.2,3.6-10,5.7-12.7,9.5c-3.2,4.6-4.5,8.6-4.5,14.3c0,5.4,1.1,9.2,3.8,13.5c4.3,6.7,12.5,11.2,20.6,11.2c10.4,0,19.9-6.9,23.4-17c1.5-4.5,1.5-11-0.2-15.6c-2-5.7-5.9-10.3-11-13.2l-1.9-1.1l4.6-3.4c5.7-4.3,13.5-11.8,17.8-17.2c11.8-14.5,19.3-31.4,22.3-50.2c1.2-7.7,1.1-23.5-0.2-31.2c-3.9-23-14-42.3-30.4-58.1C177.8,17.8,148.3,7.6,117.7,10.5z M85.6,207.5c8.3,3,12.3,12.4,8.4,20.3c-5.3,10.7-20.4,11.1-26.1,0.6c-1.6-2.9-2.1-7.9-1.2-11.2c1.2-4.1,5-8.2,9.1-9.7C78.2,206.7,83.2,206.6,85.6,207.5z M181.6,208.1c5.1,2.5,7.9,6.9,8.1,12.9c0.2,3.5,0.1,4.1-1.2,6.8c-5.4,11-20.8,11.1-26.3,0.1c-2.4-4.8-1.8-10.9,1.3-15.2c1.6-2.2,4.3-4.3,6.8-5.2C173.1,206.5,178.9,206.8,181.6,208.1z"/></g></g></g>
</svg>