<?xml version="1.0" encoding="utf-8"?>
<!-- Svg Vector Icons : http://www.onlinewebfonts.com/icon -->
<!DOCTYPE svg PUBLIC "-//W3C//DTD SVG 1.1//EN" "http://www.w3.org/Graphics/SVG/1.1/DTD/svg11.dtd">
<svg version="1.1" xmlns="http://www.w3.org/2000/svg" xmlns:xlink="http://www.w3.org/1999/xlink" x="0px" y="0px" viewBox="0 0 256 256" enable-background="new 0 0 256 256" xml:space="preserve">
<metadata> Svg Vector Icons : http://www.onlinewebfonts.com/icon </metadata>
<g><g><g><path fill="#000000" d="M61.6,10.6c-2.7,1.5-3.2,5.5-1,7.7l1.3,1.3h8.3h8.3l0.1,94.5l0.1,94.5l1.5,1.3c1.8,1.6,4.3,1.8,6,0.6c2.4-1.7,2.4-1.5,2.4-35.3c0-29.9,0-31.6,1-36c6.7-33,44.3-49.4,73.4-32c15.3,9.2,24.5,26.5,23.6,44.6c-0.9,18.6-10.9,41.1-29.2,66c-1.8,2.4-3.7,5.3-4.4,6.4c-3,5.3-5.2,14.8-4.1,18.2c0.6,1.8,2.7,3.5,4.5,3.5c3,0,5.2-2.7,5.2-6.6c0-2.4,1.1-6.7,2.3-9.2c0.5-1,2.4-3.8,4.2-6.3c14.1-19.1,24.3-38.5,28.5-54.2c4.6-17.2,3.6-32.4-3-45.8c-8.5-17.4-24.2-29.3-43-32.6c-8.7-1.6-20.6-0.7-28.7,2.1c-9.9,3.3-20.1,10.2-26.1,17.6c-1.3,1.6-2.8,3.5-3.3,4.1l-0.9,1.2l0-48.3V19.7h8.3h8.3l1.3-1.3c2.2-2.2,1.7-6-1-7.6c-1.2-0.7-3.5-0.8-22.2-0.8C67.2,10,62.5,10.2,61.6,10.6z"/></g></g></g>
</svg>