<?xml version="1.0" encoding="utf-8"?>
<!-- Svg Vector Icons : http://www.onlinewebfonts.com/icon -->
<!DOCTYPE svg PUBLIC "-//W3C//DTD SVG 1.1//EN" "http://www.w3.org/Graphics/SVG/1.1/DTD/svg11.dtd">
<svg version="1.1" xmlns="http://www.w3.org/2000/svg" xmlns:xlink="http://www.w3.org/1999/xlink" x="0px" y="0px" viewBox="0 0 256 256" enable-background="new 0 0 256 256" xml:space="preserve">
<metadata> Svg Vector Icons : http://www.onlinewebfonts.com/icon </metadata>
<g><g><g><path fill="#000000" d="M124.9,11.2l-1.4,1.1v14.9V42l1.4,1.1c1.9,1.5,4.8,1.5,6.4-0.2c1.2-1.4,1.3-1.8,1.3-15.8c0-14.4,0-14.5-1.4-15.7C129.5,9.8,126.7,9.7,124.9,11.2z"/><path fill="#000000" d="M44.7,44.8c-3.2,3.2-2.5,4.4,9.4,16.1c8.4,8.4,9.6,9.3,11.4,9.3c3.2-0.1,5.4-2.5,4.8-5.6c-0.1-0.8-4.8-5.9-10.4-11.4C48.6,42,47.9,41.6,44.7,44.8z"/><path fill="#000000" d="M206,43.7c-1.8,1-18.6,17.7-19.5,19.5c-0.5,0.9-0.8,2.1-0.8,2.8c0,1.9,2.6,4.1,4.8,4.1c1.7,0,3.1-1.2,12.1-10.2c9-9,10.2-10.4,10.2-12.1C212.8,44.3,209.1,42.1,206,43.7z"/><path fill="#000000" d="M117.6,54.4c-24.1,3.5-45.2,18.9-56.2,40.9c-2.8,5.5-5.5,14.1-6.7,20.3c-1,5.7-1,19.1,0,24.8c4.9,27.6,24.6,50.2,51.3,58.6c12.5,3.9,27.3,4.4,40.4,1c28.2-7.3,49.8-30.7,54.8-59.4c1.1-6.5,1.1-18.7,0-25.2c-4.1-23.6-19-43.3-40.7-54c-7.6-3.8-12.8-5.4-21.2-6.8C133.7,53.7,123.2,53.5,117.6,54.4z M144.1,65.1c7,1.8,17.2,6.7,22.7,10.8c8.8,6.7,16.6,16.5,20.7,26.2c3.5,8.2,4.7,13.6,5,23.7c0.2,7.5,0.1,9.8-1,15c-3.2,15.9-12,29.5-25.3,39.6c-5,3.7-15.4,8.7-22.1,10.4c-5.3,1.4-6.9,1.6-16.2,1.6c-8.6,0-11-0.2-14.7-1.2c-19.9-5.5-34.9-17.6-43.3-34.7C50.9,118,74.2,72,116.7,64.1C124.2,62.7,136.4,63.1,144.1,65.1z"/><path fill="#000000" d="M11.5,124.7c-0.9,0.9-1.5,2.1-1.5,3.2c0,1.1,0.5,2.4,1.5,3.2l1.4,1.5h13.9c14.7,0,16.3-0.2,17.4-2.8c1-2.2,0.8-3.1-1.1-5l-1.7-1.7H27.1H12.9L11.5,124.7z"/><path fill="#000000" d="M213.1,124.7c-0.9,0.9-1.5,2.1-1.5,3.2c0,1.1,0.5,2.4,1.5,3.2l1.4,1.5h14.1c14,0,14.1,0,15.7-1.4c2.2-1.9,2.2-4.8,0-6.7c-1.6-1.4-1.8-1.4-15.7-1.4h-14.1L213.1,124.7z"/><path fill="#000000" d="M62.6,186.7c-3,2.1-19.6,20.3-19.6,21.5c0,0.7,0.8,2.1,1.7,3c3.2,3.2,3.9,2.8,15.3-8.5c8.9-8.8,10.2-10.4,10.3-12.1C70.4,186.7,65.9,184.4,62.6,186.7z"/><path fill="#000000" d="M187.1,187.2c-3.1,3.1-2.1,4.8,9.6,16.3c8.1,8.1,9.7,9.3,11.3,9.3c2.5,0,4.8-2.2,4.8-4.8c0-1.7-1.2-3.1-10.2-12.1s-10.4-10.2-12.1-10.2C189.2,185.7,188.1,186.3,187.1,187.2z"/><path fill="#000000" d="M124.9,212.8l-1.4,1.1v14.9v14.9l1.4,1.1c1.9,1.5,4.8,1.5,6.4-0.2c1.2-1.4,1.3-1.8,1.3-15.8c0-14.4,0-14.5-1.4-15.7C129.5,211.4,126.7,211.3,124.9,212.8z"/></g></g></g>
</svg>