<?xml version="1.0" encoding="utf-8"?>
<!-- Svg Vector Icons : http://www.onlinewebfonts.com/icon -->
<!DOCTYPE svg PUBLIC "-//W3C//DTD SVG 1.1//EN" "http://www.w3.org/Graphics/SVG/1.1/DTD/svg11.dtd">
<svg version="1.1" xmlns="http://www.w3.org/2000/svg" xmlns:xlink="http://www.w3.org/1999/xlink" x="0px" y="0px" viewBox="0 0 256 256" enable-background="new 0 0 256 256" xml:space="preserve">
<metadata> Svg Vector Icons : http://www.onlinewebfonts.com/icon </metadata>
<g><g><g><path fill="#000000" d="M118.8,10.3c-25.7,3.2-47.5,16.8-61.5,38.5C51.2,58.4,47,69.9,45.2,82.2c-1.1,7.7-0.7,20.3,0.9,28c4.8,22.9,18.5,42.5,38.3,54.6c10.2,6.3,23.6,10.8,35,11.8l3.6,0.3v14.9v14.9h-15.7H91.5l-1.3,1.3c-1.5,1.5-1.8,3.6-0.8,5.8c1.1,2.4,1.8,2.5,18.4,2.5h15.2V229c0,13.8,0.2,15,2.7,16.3c1.8,0.9,3,0.9,4.7,0c2.5-1.3,2.7-2.5,2.7-16.3v-12.5h15.3c13.4,0,15.4-0.1,16.6-0.8c2.7-1.6,3.1-5.4,1-7.6l-1.3-1.3h-15.7h-15.7v-14.9V177l3.6-0.3c5.1-0.5,11.8-1.9,17.5-3.8c24.7-8.1,44.3-27.5,52.9-52.3c2.9-8.2,4-14.8,4.3-24.5c0.3-9.2-0.3-15.3-2.2-22.8c-8.3-32.4-34.5-56.7-67.5-62.3C136.6,10.1,123.6,9.7,118.8,10.3z M134.8,20c12.6,1.2,23.9,5.3,34.6,12.3c6,4,15.5,13.4,19.5,19.4c5.7,8.4,10.1,19,11.9,29c1.2,6.1,1.2,19.4,0.1,25.4c-2.2,11.6-6.7,22.1-13.7,31.6c-3.4,4.7-11.4,12.5-16.4,16c-7.9,5.5-18.4,10.1-27.9,12.2c-5.8,1.2-17.7,1.7-23.9,0.9c-24-3-45.4-17.9-56.4-39.2c-6.1-12-8.8-24.1-8.2-37.4C55,76.2,59,64,66.8,52.3c4.3-6.6,13.5-15.7,19.9-20C101.4,22.6,118.1,18.3,134.8,20z"/></g></g></g>
</svg>